<svg xmlns="http://www.w3.org/2000/svg" width="16.545" height="19.452" viewBox="0 0 16.545 19.452"><defs><style>.a,.c{fill:none;}.a{stroke:#5d86d0;stroke-width:1.5px;}.b{stroke:none;}</style></defs><g transform="translate(0 0.903)"><g class="a" transform="translate(0.919 5.681)"><path class="b" d="M0,0H14.707a0,0,0,0,1,0,0V9.869a3,3,0,0,1-3,3H3a3,3,0,0,1-3-3V0A0,0,0,0,1,0,0Z"/><path class="c" d="M1.5.75H13.207a.75.75,0,0,1,.75.75V9.869a2.25,2.25,0,0,1-2.25,2.25H3A2.25,2.25,0,0,1,.75,9.869V1.5A.75.75,0,0,1,1.5.75Z"/></g><path class="a" d="M-1-.217H3.6L7.34-2.68l3.61,2.464h4.6" transform="translate(1 2.68)"/><line class="a" y2="7.353" transform="translate(6.434 10.277)"/><line class="a" y2="7.353" transform="translate(10.111 10.277)"/></g></svg>